<svg xmlns="http://www.w3.org/2000/svg" width="70" height="70" viewBox="0 0 70 70">
    <path fill="#FFF" fill-rule="nonzero" d="M56.563 23.38v18.97c0 3.513-2.859 6.38-6.38 6.38H33.8a.859.859 0 0 0-.608.255l-8.985 8.984a2.315 2.315 0 0 1-1.642.681c-.3 0-.6-.063-.89-.181a2.311 2.311 0 0 1-1.434-2.142v-6.734a.87.87 0 0 0-.87-.862c-3.513 0-6.372-2.868-6.372-6.38V23.38C13 19.858 15.859 17 19.371 17h30.812a6.383 6.383 0 0 1 6.38 6.38zM41.63 27.77l-9.636 10.793-5.047-4.543a1.167 1.167 0 0 0-1.56 1.735l5.917 5.326c.48.432 1.22.391 1.65-.09L43.37 29.323a1.167 1.167 0 1 0-1.74-1.554z"/>
</svg>
